<svg xmlns="http://www.w3.org/2000/svg" viewBox="0 0 19 16" width="19" height="16">
	<style>
		.shp0 { fill: #d12755 } 
	</style>
	<path id="twitter" class="shp0" d="M18.35,2.48c-0.66,0.29 -1.36,0.48 -2.1,0.56c0.75,-0.44 1.33,-1.15 1.61,-1.98c-0.71,0.41 -1.49,0.71 -2.32,0.87c-0.67,-0.7 -1.62,-1.13 -2.67,-1.13c-2.02,0 -3.65,1.6 -3.65,3.58c0,0.28 0.03,0.55 0.09,0.82c-3.04,-0.15 -5.73,-1.58 -7.53,-3.75c-0.31,0.53 -0.49,1.14 -0.49,1.8c0,1.24 0.64,2.34 1.63,2.98c-0.6,-0.02 -1.16,-0.18 -1.65,-0.45c0,0.01 0,0.03 0,0.04c0,1.74 1.26,3.19 2.93,3.51c-0.31,0.08 -0.63,0.13 -0.96,0.13c-0.24,0 -0.46,-0.02 -0.69,-0.06c0.46,1.42 1.81,2.46 3.41,2.49c-1.25,0.96 -2.83,1.53 -4.54,1.53c-0.29,0 -0.59,-0.02 -0.87,-0.05c1.62,1.02 3.54,1.61 5.6,1.61c6.72,0 10.4,-5.46 10.4,-10.2c0,-0.15 0,-0.31 -0.01,-0.46c0.71,-0.51 1.33,-1.14 1.82,-1.86z" />
</svg>